<svg width="25" height="12" viewBox="0 0 25 12" fill="none" xmlns="http://www.w3.org/2000/svg">
<path opacity="0.35" fill-rule="evenodd" clip-rule="evenodd" d="M19.6668 0.00268555C21.1396 0.00268555 22.3335 1.19659 22.3335 2.66935V8.66935C22.3335 10.1421 21.1396 11.336 19.6668 11.336H3.00016C1.5274 11.336 0.333496 10.1421 0.333496 8.66935V2.66935C0.333496 1.19659 1.5274 0.00268555 3.00016 0.00268555H19.6668ZM19.6668 1.00269H3.00016C2.12813 1.00269 1.41253 1.6724 1.33961 2.52555L1.3335 2.66935V8.66935C1.3335 9.54138 2.00321 10.257 2.85636 10.3299L3.00016 10.336H19.6668C20.5389 10.336 21.2545 9.66631 21.3274 8.81316L21.3335 8.66935V2.66935C21.3335 1.79732 20.6638 1.08171 19.8106 1.0088L19.6668 1.00269ZM24.6615 5.66935C24.6615 6.54249 24.1382 7.33058 23.3335 7.66935V3.66935C24.1382 4.00813 24.6615 4.79622 24.6615 5.66935Z" fill="black"/>
<rect x="2.3335" y="2.00269" width="18" height="7.33333" rx="1.33333" fill="black"/>
</svg>
